<svg width="63.801" height="72.001" viewBox="0 0 63.801 72.001" xmlns="http://www.w3.org/2000/svg">
  <g id="svgGroup" stroke-linecap="round" fill-rule="evenodd" font-size="9pt" stroke="#000"
      stroke-width="0.25mm" fill="#000" style="stroke:#000;stroke-width:0.25mm;fill:#000">
      <path
          d="M 23.628 71.139 A 37.881 37.881 0 0 0 31.901 72.001 Q 42.001 72.001 49.151 67.501 A 28.257 28.257 0 0 0 53.287 64.337 A 29.609 29.609 0 0 0 60.051 54.901 A 39.079 39.079 0 0 0 62.984 45.495 A 52.589 52.589 0 0 0 63.801 36.001 A 53.407 53.407 0 0 0 63.133 27.369 A 39.525 39.525 0 0 0 60.051 17.101 A 34.326 34.326 0 0 0 59.813 16.598 A 28.669 28.669 0 0 0 49.151 4.501 A 28.29 28.29 0 0 0 40.173 0.862 A 37.881 37.881 0 0 0 31.901 0.001 Q 21.801 0.001 14.651 4.501 A 28.257 28.257 0 0 0 10.514 7.665 A 29.609 29.609 0 0 0 3.751 17.101 A 39.079 39.079 0 0 0 0.818 26.506 A 52.589 52.589 0 0 0 0.001 36.001 A 53.407 53.407 0 0 0 0.668 44.633 A 39.525 39.525 0 0 0 3.751 54.901 A 34.326 34.326 0 0 0 3.988 55.403 A 28.669 28.669 0 0 0 14.651 67.501 A 28.29 28.29 0 0 0 23.628 71.139 Z M 31.901 64.001 A 26.34 26.34 0 0 0 38.648 63.188 A 17.805 17.805 0 0 0 48.701 56.451 Q 53.398 50.117 54.155 40.019 A 53.781 53.781 0 0 0 54.301 36.001 A 48.128 48.128 0 0 0 53.643 27.786 Q 52.864 23.297 51.164 19.688 A 24.322 24.322 0 0 0 48.701 15.551 A 18.106 18.106 0 0 0 36.997 8.444 A 27.901 27.901 0 0 0 31.901 8.001 A 26.34 26.34 0 0 0 25.154 8.814 A 17.805 17.805 0 0 0 15.101 15.551 Q 10.403 21.884 9.646 31.982 A 53.781 53.781 0 0 0 9.501 36.001 A 48.128 48.128 0 0 0 10.159 44.216 Q 10.937 48.704 12.637 52.313 A 24.322 24.322 0 0 0 15.101 56.451 A 18.106 18.106 0 0 0 26.804 63.558 A 27.901 27.901 0 0 0 31.901 64.001 Z"
          vector-effect="non-scaling-stroke" />
  </g>
</svg>